<?xml version="1.0" standalone="no"?>
<!DOCTYPE svg PUBLIC "-//W3C//DTD SVG 1.1//EN" "http://www.w3.org/Graphics/SVG/1.1/DTD/svg11.dtd" >
<!--
2013-9-30: Created.
-->
<svg>
<metadata>
Created by iconfont
</metadata>
<defs>

<font id="iconfont" horiz-adv-x="1024" >
  <font-face
    font-family="iconfont"
    font-weight="500"
    font-stretch="normal"
    units-per-em="1024"
    ascent="896"
    descent="-128"
  />
    <missing-glyph />
    
    <glyph glyph-name="x" unicode="x" horiz-adv-x="1001"
d="M281 543q-27 -1 -53 -1h-83q-18 0 -36.5 -6t-32.5 -18.5t-23 -32t-9 -45.5v-76h912v41q0 16 -0.5 30t-0.5 18q0 13 -5 29t-17 29.5t-31.5 22.5t-49.5 9h-133v-97h-438v97zM955 310v-52q0 -23 0.5 -52t0.5 -58t-10.5 -47.5t-26 -30t-33 -16t-31.5 -4.5q-14 -1 -29.5 -0.5
t-29.5 0.5h-32l-45 128h-439l-44 -128h-29h-34q-20 0 -45 1q-25 0 -41 9.5t-25.5 23t-13.5 29.5t-4 30v167h911zM163 247q-12 0 -21 -8.5t-9 -21.5t9 -21.5t21 -8.5q13 0 22 8.5t9 21.5t-9 21.5t-22 8.5zM316 123q-8 -26 -14 -48q-5 -19 -10.5 -37t-7.5 -25t-3 -15t1 -14.5
t9.5 -10.5t21.5 -4h37h67h81h80h64h36q23 0 34 12t2 38q-5 13 -9.5 30.5t-9.5 34.5q-5 19 -11 39h-368zM336 498v228q0 11 2.5 23t10 21.5t20.5 15.5t34 6h188q31 0 51.5 -14.5t20.5 -52.5v-227h-327z" />
    

    
    <glyph glyph-name="layers" unicode="&#58966;" d="M512.007289 197.6c-3.3792 0-6.7584 0.6656-9.9328 1.9968l-486.4 204.8c-9.472 3.9936-15.6672 13.312-15.6672 23.6032s6.1952 19.6096 15.6672 23.6032l486.4 204.8c6.3488 2.6624 13.5168 2.6624 19.8656 0l486.4-204.8c9.472-3.9936 15.6672-13.312 15.6672-23.6032s-6.1952-19.6096-15.6672-23.6032l-486.4-204.8c-3.1744-1.3312-6.5536-1.9968-9.9328-1.9968zM91.552889 428l420.4544-176.9984 420.4544 176.9984-420.4544 176.9984-420.4544-176.9984zM512.007289 44c-3.3792 0-6.7584 0.6656-9.9328 1.9968l-486.4 204.8c-13.0048 5.4784-19.1488 20.48-13.6704 33.536s20.48 19.1488 33.536 13.6704l476.4672-200.6016 476.4672 200.6016c13.0048 5.4784 28.0576-0.6144 33.536-13.6704s-0.6144-28.0576-13.6704-33.536l-486.4-204.8c-3.1744-1.3312-6.5536-1.9968-9.9328-1.9968zM512.007289-109.6c-3.3792 0-6.7584 0.6656-9.9328 1.9968l-486.4 204.8c-13.0048 5.4784-19.1488 20.48-13.6704 33.536s20.48 19.1488 33.536 13.6704l476.4672-200.6016 476.4672 200.6016c13.0048 5.4784 28.0576-0.6144 33.536-13.6704s-0.6144-28.0576-13.6704-33.536l-486.4-204.8c-3.1744-1.3312-6.5536-1.9968-9.9328-1.9968z"  horiz-adv-x="1025" />

    
    <glyph glyph-name="tuichu" unicode="&#59413;" d="M561.022507-65.775684 102.378715-65.775684 102.378715 668.05561l458.643792 0 0-183.457312 73.383334 0L634.405841 657.049952c0 46.594201-37.791721 84.387969-84.409458 84.387969L113.40484 741.437921c-46.616714 0-84.409458-37.793768-84.409458-84.387969l0-711.816908c0-46.599318 37.791721-84.392062 84.409458-84.392062l436.591543 0c46.616714 0 84.409458 37.793768 84.409458 84.392062L634.405841 117.682651l-73.383334 0L561.022507-65.775684zM949.127755 342.678008 790.161231 501.62202 745.396701 456.859537 864.443028 337.83163 505.985006 337.83163 505.985006 264.448296 870.88167 264.448296 745.396701 138.983793 790.161231 94.237683 960.39231 264.448296 993.871819 297.928828Z"  horiz-adv-x="1024" />

    
    <glyph glyph-name="iconfonttubiaomoban" unicode="&#59057;" d="M289.92567 284.700413 289.92567 436.390207c0 104.308671 84.405365 188.82353 188.714036 188.82353l192.267978 0c-22.403243 47.099714-70.084195 79.878259-125.641535 79.878259L204.8439 705.091996c-77.001745 0-139.491984-62.49024-139.491984-139.491984l0-151.691841c0-49.709145 26.253944-93.066629 65.366753-117.765147l-22.873963-104.026238 109.983927 82.300424 73.15002 0C290.789341 277.877007 289.92567 281.145447 289.92567 284.700413zM819.155077 575.897541 478.73385 575.897541c-77.000722 0-139.491984-62.506613-139.491984-139.508357l0-151.689794c0-77.001745 62.491263-139.493008 139.491984-139.493008l327.436494 0 109.983927-82.298378L893.262912 166.932196c39.129182 24.714891 65.38415 68.058049 65.38415 117.768217L958.647061 436.390207C958.646038 513.390929 896.156822 575.897541 819.155077 575.897541zM468.247009 321.611068c-27.197432 0-49.221028 22.00927-49.221028 49.223075s22.023596 49.223075 49.221028 49.223075c27.212782 0 49.222051-22.00927 49.222051-49.223075S495.460814 321.611068 468.247009 321.611068zM648.990512 321.611068c-27.211758 0-49.221028 22.00927-49.221028 49.223075s22.00927 49.223075 49.221028 49.223075c27.213805 0 49.223075-22.00927 49.223075-49.223075S676.204317 321.611068 648.990512 321.611068zM829.71969 321.611068c-27.197432 0-49.223075 22.00927-49.223075 49.223075s22.024619 49.223075 49.223075 49.223075c27.212782 0 49.222051-22.00927 49.222051-49.223075S856.932472 321.611068 829.71969 321.611068z"  horiz-adv-x="1024" />

    
    <glyph glyph-name="xiangzuo" unicode="&#58895;" d="M449.960015 2.016169 65.031109 386.710738l381.293099 381.293099 45.146223-45.148269L187.301873 418.688034l770.760368 0L958.062242 354.841913 187.429787 354.841913l307.677475-307.678498L449.960015 2.016169zM449.960015 2.016169"  horiz-adv-x="1024" />

    
    <glyph glyph-name="jiahao" unicode="&#58907;" d="M219.428571 420.571429l585.142857 0 0-73.142857-585.142857 0 0 73.142857ZM548.571429 676.571429l0-585.142857-73.142857 0 0 585.142857 73.142857 0ZM512-128C794.769792-128 1024 101.230208 1024 384 1024 666.769792 794.769792 896 512 896 229.230208 896 0 666.769792 0 384 0 101.230208 229.230208-128 512-128L512-128ZM512-54.857143C269.625893-54.857143 73.142857 141.625893 73.142857 384 73.142857 626.374107 269.625893 822.857143 512 822.857143 754.374107 822.857143 950.857143 626.374107 950.857143 384 950.857143 141.625893 754.374107-54.857143 512-54.857143L512-54.857143Z"  horiz-adv-x="1024" />

    
    <glyph glyph-name="ren" unicode="&#58968;" d="M832 48C832 46.112 831.52 44.352 830.928 42.656 830.688 39.12 830.736 35.504 830.384 32L798.128 32 225.872 32 193.616 32C193.264 35.504 193.312 39.12 193.072 42.656 192.48 44.352 192 46.112 192 48 192 49.136 192.416 50.128 192.64 51.2 192.464 55.472 192 59.68 192 64 192 202.64 280.336 310.528 403.68 350.736 343.984 387.28 304 452.88 304 528 304 642.88 397.12 736 512 736 626.88 736 720 642.88 720 528 720 452.816 679.84 387.344 620.08 350.816 743.536 310.672 832 202.736 832 64 832 59.68 831.536 55.472 831.36 51.2 831.584 50.128 832 49.136 832 48ZM688 528C688 625.2 609.2 704 512 704 414.8 704 336 625.2 336 528 336 452.224 383.984 387.808 451.152 363.024 442.496 361.456 434 359.44 425.632 357.12 453.152 364.064 482.032 368 512 368 532.416 368 552.336 366.128 571.696 362.848 639.408 387.344 688 451.824 688 528ZM800 64C800 223.056 671.056 336 512 336 352.944 336 224 223.056 224 64L224 64 800 64 800 64Z"  horiz-adv-x="1024" />

    
    <glyph glyph-name="mulian" unicode="&#59189;" d="M396.8 460.8m-51.2 0a8 8 0 1 0 102.4 0 8 8 0 1 0-102.4 0ZM627.2 460.8m-51.2 0a8 8 0 1 0 102.4 0 8 8 0 1 0-102.4 0ZM512 768c-211.84 0-384-172.16-384-384s172.16-384 384-384 384 172.16 384 384S723.84 768 512 768zM512 64c-176.64 0-320 143.36-320 320s143.36 320 320 320 320-143.36 320-320S688.64 64 512 64zM640 288 384 288c-17.92 0-32-14.08-32-32s14.08-32 32-32l256 0c17.92 0 32 14.08 32 32S657.92 288 640 288z"  horiz-adv-x="1024" />

    
    <glyph glyph-name="fangzi-copy" unicode="&#58882;" d="M997.591 346.339l-440.69 435.949c-15.597 15.426-40.967 15.426-56.556 0l-440.684-435.949c-7.851-7.762-7.918-20.425-0.151-28.275 7.772-7.851 19.461-7.927 27.311-0.156l93.747 93.634v-369.355c0-20.679 20.752-32.522 46.675-32.522h179.959c21.739 0 33.149 10.505 33.149 32.522v219.708c9.824 1.689 5.891 7.554 6.843 7.554h154.937c0.166-9.824-1.325-5.191-1.325-6.548v-220.715c0-20.679 20.422-32.522 46.345-32.522h179.959c21.739 0 33.478 10.505 33.478 32.522v381.676l107.989-105.954c3.9-3.856 9.424-5.779 14.507-5.779 5.15 0 10.527 1.982 14.436 5.936 7.769 7.851 7.921 20.513 0.071 28.275zM820.204 50.053h-173.052c-1.811 0 2.774-3.315-7.050-3.003v215.851c0 25.629-12.189 46.934-32.942 46.934h-159.966c-22.158 0-47.229-25.377-47.229-46.934v-212.849h-172.722c-1.811 0 3.535-3.315-6.288-3.003v404.028l305.97 302.782 293.278-290.433v-413.372z"  horiz-adv-x="1024" />

    
    <glyph glyph-name="xiaolian" unicode="&#58899;" d="M511.999488 2.975007c-210.101135 0-381.034203 170.923858-381.034203 381.013737 0 210.102159 170.934091 381.026016 381.034203 381.026016 210.099089 0 381.024993-170.923858 381.024993-381.026016C893.024481 173.899888 722.0996 2.975007 511.999488 2.975007zM511.999488 703.576479C335.776951 703.576479 192.402543 560.212304 192.402543 383.98772c0-176.212304 143.374408-319.575456 319.596945-319.575456 176.22356 0 319.586712 143.363152 319.586712 319.575456C831.585177 560.212304 688.223049 703.576479 511.999488 703.576479zM437.331905 453.558216c0-38.417985-23.867594-69.559239-53.337789-69.559239-29.458939 0-53.327556 31.141254-53.327556 69.559239 0 38.419008 23.868617 69.557192 53.327556 69.557192C413.463288 523.114384 437.331905 491.9762 437.331905 453.558216zM693.32116 453.558216c0-38.417985-23.868617-69.559239-53.336766-69.559239-29.458939 0-53.326533 31.141254-53.326533 69.559239 0 38.419008 23.867594 69.557192 53.326533 69.557192C669.452543 523.114384 693.32116 491.9762 693.32116 453.558216zM511.999488 145.330202c-91.545996 0-173.822884 54.549384-209.610972 138.962935l56.558134 23.980157c26.148543-61.657268 86.225827-101.504812 153.052838-101.504812 66.827011 0 126.895085 39.847543 153.043628 101.504812l56.558134-23.980157C685.812139 199.878562 603.537298 145.330202 511.999488 145.330202z"  horiz-adv-x="1024" />

    
    <glyph glyph-name="jianhao" unicode="&#58987;" d="M512-89.935872C250.671104-89.935872 38.064128 122.671104 38.064128 384S250.671104 857.935872 512 857.935872 985.935872 645.328896 985.935872 384 773.328896-89.935872 512-89.935872zM512 834.816683C263.427413 834.816683 61.183317 632.572587 61.183317 384S263.427413-66.816683 512-66.816683 962.816683 135.427413 962.816683 384 760.572587 834.816683 512 834.816683zM734.0032 337.578667 271.627605 337.578667c-19.144704 0-34.678101 14.988629-34.678101 34.133333s15.533397 34.133333 34.678101 34.133333L734.0032 405.845333C753.149269 405.845333 768.682667 390.856704 768.682667 371.712S753.149269 337.578667 734.0032 337.578667z"  horiz-adv-x="1024" />

    
    <glyph glyph-name="tubiao16" unicode="&#58896;" d="M637.04064 50.29376l0 123.28448-51.33312 0 0-123.28448c0-28.35456-22.97856-51.33824-51.33312-51.33824L169.2416-1.04448c-28.34944 0-51.328 22.9888-51.328 51.33824L117.9136 717.71136c0 28.35456 22.97856 51.34336 51.328 51.34336l365.12768 0c28.35456 0 51.33312-22.9888 51.33312-51.34336l0-123.2896 51.33312 0 0 123.2896c0 56.704-45.96736 102.6816-102.67136 102.6816L169.2416 820.39296C112.5376 820.38784 66.56 774.41536 66.56 717.71136l0-667.4176c0-56.704 45.9776-102.6816 102.6816-102.6816l365.12768 0C591.07328-52.38784 637.04064-6.41536 637.04064 50.29376L637.04064 50.29376zM728.2176 552.65792l143.01696-142.99136L390.65088 409.66656c-14.1824 0-25.66656-11.47904-25.66656-25.66656s11.48416-25.67168 25.66656-25.67168l477.6192 0-140.02688-139.75552c-5.03808-5.03808-7.54688-11.60704-7.54688-18.17088 0-6.56896 2.50368-13.13792 7.49568-18.1504 10.03008-10.02496 26.27584-10.02496 36.30592-0.02048l185.40544 185.02656c4.8384 4.79232 7.53664 11.35616 7.53664 18.14528l0 0.0256c0 6.79424-2.69312 13.312-7.51104 18.12992l-185.40544 185.42592c-10.0352 10.02496-26.27584 10.02496-36.30592 0C718.19264 578.93376 718.19264 562.688 728.2176 552.65792L728.2176 552.65792zM728.2176 552.65792"  horiz-adv-x="1024" />

    
    <glyph glyph-name="kulian" unicode="&#58893;" d="M504.78592 256.33792c125.9776 0 178.3552-113.23904 180.54144-118.08256l-42.38848-19.05152c-1.66912 3.69152-41.87648 90.6496-138.12736 90.6496-103.04-1.20832-142.24384-86.98368-143.8464-90.624l-42.48064 18.8416c2.11968 4.77184 53.21728 116.70528 183.86432 118.24128l2.43712 0.0256zM502.24128-28.44672c-211.7376 0-384 172.2624-384 384s172.2624 384 384 384c211.74272 0 384-172.2624 384-384s-172.25728-384-384-384z m0 711.11168c-180.36736 0-327.11168-146.74432-327.11168-327.11168s146.74432-327.11168 327.11168-327.11168 327.11168 146.74432 327.11168 327.11168-146.7136 327.11168-327.11168 327.11168zM346.45504 422.23104a44.34432 44.34432 0 0 1 44.34432-44.34432c24.51968 0 44.34432 19.85536 44.34432 44.34432s-19.82464 44.34432-44.34432 44.34432a44.32896 44.32896 0 0 1-44.34432-44.34432zM568.65792 422.23104a44.34432 44.34432 0 0 1 44.34432-44.34432c24.51968 0 44.34432 19.85536 44.34432 44.34432s-19.82464 44.34432-44.34432 44.34432a44.32896 44.32896 0 0 1-44.34432-44.34432z"  horiz-adv-x="1026" />

    
    <glyph glyph-name="xiugai" unicode="&#58885;" d="M953.76-60.944c0-36.448-29.856-66.304-66.288-66.304L130.304-127.248C93.808-127.232 64-97.392 64-60.944L64 829.696C64 866.16 93.808 896 130.304 896l757.184 0c36.416 0 66.288-29.84 66.288-66.304L953.776-60.944 953.76-60.944zM909.008 785.424c0 36.448-29.792 66.304-66.256 66.304L174.784 851.728c-36.448 0-66.304-29.84-66.304-66.304l0-801.936c0-36.432 29.84-66.304 66.304-66.304l667.984 0c36.448 0 66.256 29.856 66.256 66.304L909.024 785.424 909.008 785.424zM798.496 697.536c0 10.96-8.976 19.904-19.888 19.904L261.456 717.44c-10.912 0-19.856-8.944-19.856-19.904l0-3.296c0-10.96 8.944-19.904 19.856-19.904l517.152 0c10.896 0 19.888 8.96 19.888 19.904L798.496 697.536zM798.672 541.616c0 10.944-8.976 19.904-19.888 19.904L261.68 561.52c-10.96 0-19.904-8.96-19.904-19.904l0-3.312c0-10.944 8.944-19.904 19.904-19.904l517.104 0c10.928 0 19.888 8.96 19.888 19.904L798.672 541.616zM798.704 408.192c0 10.944-8.912 19.888-19.84 19.888L261.712 428.08c-10.912 0-19.856-8.944-19.856-19.888l0-3.296c0-10.96 8.944-19.904 19.856-19.904l517.136 0c10.944 0 19.84 8.96 19.84 19.904L798.688 408.192 798.704 408.192zM417.648 275.408c0 10.976-8.96 19.904-19.904 19.904l-135.904 0c-10.96 0-19.904-8.944-19.904-19.904l0-3.28c0-10.976 8.944-19.904 19.904-19.904l135.904 0c10.944 0 19.904 8.944 19.904 19.904L417.648 275.408 417.648 275.408zM776.096 300.32l-17.872 17.856c-14.448 14.512-36.72 15.712-49.664 2.784L508.672 121.056l70.304-70.336 199.888 199.952C791.808 263.616 790.544 285.856 776.096 300.32zM486.592 98.784l0-70.384 70.096 0 0.128 0.176L486.592 98.784z"  horiz-adv-x="1024" />

    
    <glyph glyph-name="xiangyou-page" unicode="&#58625;" d="M340.614 753.139c-0.001 0-0.001 0-0.003 0-14.561 0-26.366-11.805-26.366-26.366 0-7.282 2.951-13.873 7.724-18.645l324.129-324.126-324.129-324.129c-4.726-4.763-7.647-11.325-7.646-18.568 0-14.561 11.805-26.366 26.366-26.366 7.244 0 13.804 2.92 18.57 7.648l342.773 342.77c4.773 4.772 7.724 11.363 7.724 18.645s-2.951 13.873-7.724 18.645l-342.772 342.772c-4.76 4.77-11.34 7.721-18.609 7.721-0.011 0-0.025 0-0.037 0z"  horiz-adv-x="1024" />

    
    <glyph glyph-name="tuichu1" unicode="&#58902;" d="M829.44 13.312h-634.88c-28.672 0-53.248 24.576-53.248 53.248v634.88c0 28.672 24.576 53.248 53.248 53.248h634.88c28.672 0 53.248-24.576 53.248-53.248v-107.861333c0-11.605333-8.874667-20.48-20.48-20.48s-20.48 8.874667-20.48 20.48V701.44c0 6.144-6.144 12.288-12.288 12.288h-634.88c-6.144 0-12.288-6.144-12.288-12.288v-634.88c0-6.144 6.144-12.288 12.288-12.288h634.88c6.144 0 12.288 6.144 12.288 12.288v107.178667c0 11.605333 8.874667 20.48 20.48 20.48s20.48-8.874667 20.48-20.48v-107.178667c0-28.672-24.576-53.248-53.248-53.248zM862.208 363.52H371.370667c-11.605333 0-20.48 8.874667-20.48 20.48s8.874667 20.48 20.48 20.48h490.837333c11.605333 0 20.48-8.874667 20.48-20.48s-8.874667-20.48-20.48-20.48zM862.208 363.52c-5.461333 0-10.24 2.048-14.336 6.144l-170.666667 170.666667c-8.192 8.192-8.192 21.162667 0 28.672 8.192 8.192 21.162667 8.192 28.672 0l170.666667-170.666667c8.192-8.192 8.192-21.162667 0-28.672-4.096-4.096-8.874667-6.144-14.336-6.144zM691.541333 192.853333c-5.461333 0-10.24 2.048-14.336 6.144-8.192 8.192-8.192 21.162667 0 28.672l170.666667 170.666667c8.192 8.192 21.162667 8.192 28.672 0 8.192-8.192 8.192-21.162667 0-28.672l-170.666667-170.666667c-4.096-4.096-8.874667-6.144-14.336-6.144z"  horiz-adv-x="1024" />

    
    <glyph glyph-name="tuichu2" unicode="&#58937;" d="M952.3 431.8L793.9 590.2c-10.9 10.9-28.7 10.9-39.6 0-10.9-10.9-10.9-28.7 0-39.6L864.9 440H400.5v-56h474L754.3 263.8c-10.9-10.9-10.9-28.7 0-39.6 10.9-10.9 28.7-10.9 39.6 0l158.4 158.4c6.7 6.7 8.8 15.9 7.3 24.6 1.5 8.7-0.6 17.9-7.3 24.6zM624 76c0-15.5-12.5-28-28-28H148c-15.5 0-28 12.5-28 28V692c0 15.5 12.5 28 28 28h448c15.5 0 28-12.5 28-28v-196h56V720c0 30.9-25.1 56-56 56H120c-30.9 0-56-25.1-56-56v-672c0-30.9 25.1-56 56-56h504c30.9 0 56 25.1 56 56V328h-56v-252z"  horiz-adv-x="1024" />

    
    <glyph glyph-name="xiugai1" unicode="&#59171;" d="M834.1 460.2c-17.7 0-32-14.3-32-32v-428.4H160.2V765.8H592c17.2 0.5 31 14.6 31 32 0 17.7-14.3 32-31.9 32H150.2c-29.8 0-54-24.2-54-54v-786.1c0-29.8 24.2-54 54-54h661.9c29.8 0 54 24.2 54 54V428.2c0 17.7-14.3 32-32 32zM916 791.2c-27.1 38.4-69 54.5-117.9 45.4-32.9-6.2-58.1-21.6-60.8-23.4-1.8-1.1-3.5-2.4-5-3.9L342.6 436.7c-4.6-4.4-7.7-10-9.1-16.2l-44.6-199.9c-2.4-10.9 1-22.3 9-30 6-5.8 14-9 22.2-9 2.7 0 5.4 0.3 8.1 1l191.3 50c5.5 1.4 10.5 4.3 14.5 8.3l365.1 365.3c0.7 0.7 1.4 1.5 2.1 2.3 2 2.4 19.4 24.2 30.3 56.1 15.8 46.1 10.4 89.8-15.5 126.6zM509.1 437.9l-71.2 1.4L694.6 684.7l97.6-94.8-251.7-251.8V406c0 17.4-14 31.6-31.4 31.9z m-119.9-61.3c1.5-0.2 3-0.4 4.5-0.4l82.8-1.6v-87l-75.8-19.8V297h-29.2l17.7 79.6z m448.2 258.6L740.9 729l32.9 31.4c5.6 3.1 20.5 10.6 37.5 13.5 30.5 5.2 44-7.8 52.4-19.6 13.7-19.4 16.3-41.4 7.8-67.1-6.1-18.8-16.2-33.1-19.1-36.9l-15-15.1z"  horiz-adv-x="1024" />

    
    <glyph glyph-name="sousuo" unicode="&#59744;" d="M959.620225 15.369292l-78.289064-79.004355-214.536144 215.776391c-63.155389-48.677653-141.809773-77.905324-227.389894-77.905324-207.342302 0-375.432625 169.634492-375.432624 378.875027S232.061798 831.995267 439.4041 831.995267c207.333092 0 375.419322-169.623235 375.419322-378.87298 0-82.510202-26.41358-158.650323-70.803579-220.847897l215.600382-216.905098zM439.4041 740.128977c-157.091828 0-284.436144-128.490419-284.436144-287.007713 0-158.52241 127.338177-287.025109 284.436144-287.025109 157.058059 0 284.396235 128.502699 284.396235 287.025109 0 158.517293-127.337153 287.007713-284.396235 287.007713z"  horiz-adv-x="1024" />

    
    <glyph glyph-name="xiangzuo1" unicode="&#58886;" d="M708.389 780.749l-392.775-399.872 392.775-399.872v66.253l-333.635 333.635 333.635 333.635z"  horiz-adv-x="1024" />

    
    <glyph glyph-name="zan" unicode="&#58626;" d="M110.898 394.054c-0.298-3.661 0-7.467 1.022-11.275l72.181-318.438c1.022-3.802 2.633-7.317 4.829-10.394 7.761-15.373 19.472-29.137 35.138-38.946 16.395-10.393 34.847-15.368 52.999-15.368v0.146l463.379 0.146c1.611-0.292 3.217-0.439 4.974-0.439s3.369 0.147 4.98 0.439h123.271c1.759-0.292 3.517-0.439 5.272-0.439 18.445 0 33.382 14.931 33.382 33.377l-0.292 400.719c0 18.445-14.936 33.382-33.381 33.382-1.319 0-2.779-0.147-4.098-0.298l-110.83 0.298v0.583c-101.901 7.323-182.717 90.918-185.648 193.987 0.298 2.931 0.444 5.856 0.444 8.787 0 53.584-43.482 97.067-97.072 97.067-46.115 0-84.618-32.21-94.573-75.253h-0.442c-5.414-24.599-8.491-50.074-8.491-76.279 0-40.406 6.879-79.206 19.472-115.367l-186.379-0.146c-1.757 0-3.364-0.15-4.974-0.443-31.771-1.314-62.517-17.57-80.523-46.702-11.57-18.157-16.107-38.943-14.64-59.146M845.272 66.98h-66.763l-0.292 333.513 66.76-0.145 0.294-333.368zM181.753 418.647c6.446 10.394 17.715 15.812 29.137 15.228v0.147h0.146l235.572 0.292c18.445 0 33.38 14.934 33.38 33.38 0 5.272-1.32 10.248-3.514 14.79l0.292 0.294c-13.324 24.885-22.988 51.826-28.546 80.373h-0.444c0 0-4.391 18.012-4.391 52.561 0 27.379 4.98 52.416 4.98 52.416h0.293c0 0.439-0.146 1.022-0.146 1.46 0 17.276 13.909 31.185 31.186 31.185 17.271 0 31.18-13.908 31.18-31.185 0-0.73 0-1.46-0.146-2.196h0.444c0 0-0.589-26.060 4.683-53.145 2.196-11.416 5.272-22.106 8.199-30.597 0 0 0.146 0 0.146 0.146 28.108-85.942 98.677-152.553 187.108-174.958l0.292-341.858-434.971-0.146c-1.465 0-2.931-0.146-4.396-0.292-4.39 0.584-8.636 2.050-12.589 4.537-5.565 3.516-9.663 8.636-12.004 14.347h-0.146l-69.396 306.578 0.292 0.147c-2.642 8.342-1.761 18.152 3.36 26.495z"  horiz-adv-x="1024" />

    
    <glyph glyph-name="chenggong" unicode="&#58918;" d="M460.358 139.415a20.196 20.196 0 0 0-14.24 5.844L268.832 320.582c-7.937 7.845-7.994 20.631-0.127 28.543 7.868 7.919 20.678 7.971 28.615 0.131l163.038-161.239 264.344 261.422c7.932 7.845 20.747 7.79 28.615-0.127 7.867-7.922 7.81-20.696-0.127-28.544L474.605 145.259a20.205 20.205 0 0 0-14.247-5.844zM840.254-111.058H181.768c-25.12 0-45.558 20.296-45.558 45.231V685.559c0 24.94 20.438 45.224 45.558 45.224h50.655c11.174 0 20.23-9.033 20.23-20.182 0-11.147-9.056-20.187-20.23-20.187h-50.655c-2.763 0-5.094-2.227-5.094-4.857v-751.386c0-2.637 2.334-4.859 5.094-4.859h658.486c2.763 0 5.094 2.227 5.094 4.859V685.559c0 2.631-2.331 4.857-5.094 4.857h-50.648c-11.176 0-20.232 9.04-20.232 20.187 0 11.149 9.056 20.182 20.232 20.182h50.648c25.12 0 45.558-20.286 45.558-45.224v-751.386c0-24.937-20.438-45.233-45.558-45.233zM688.294 640.333h-354.57c-12.952 0-24.644 5.452-32.087 14.968-7.404 9.468-9.857 22.023-6.729 34.444l13.068 51.586c5.578 22.166 28.017 39.551 51.072 39.551h50.658c4.643 0 10.725 4.648 11.833 9.046l13.073 51.59c5.585 22.164 28.022 39.546 51.074 39.546h50.651c23.057 0 45.494-17.382 51.087-39.575l13.052-51.531c1.113-4.428 7.195-9.076 11.839-9.076h50.655c23.057 0 45.494-17.384 51.084-39.576l13.052-51.531c3.133-12.446 0.679-25.004-6.722-34.473-7.439-9.517-19.138-14.969-32.09-14.969z m-353.94 40.362h353.312l-12.853 50.744c-1.116 4.432-7.198 9.075-11.844 9.075h-50.655c-23.05 0-45.489 17.382-51.077 39.58l-13.059 51.531c-1.111 4.42-7.198 9.073-11.844 9.073h-50.651c-4.645 0-10.728-4.651-11.834-9.048l-13.073-51.583c-5.583-22.169-28.017-39.551-51.072-39.551h-50.658c-4.645 0-10.725-4.65-11.828-9.046l-12.864-50.775z"  horiz-adv-x="1075" />

    
    <glyph glyph-name="xiangzuo2" unicode="&#58911;" d="M547.671951 879.963092c19.99784-19.980564 19.99784-52.285252 0-72.265816L174.747485 434.940859h899.255754c28.230675 0 51.138748-22.89708 51.138749-51.104196 0-28.21654-22.908074-51.11362-51.138749-51.11362H174.747485l372.924466-372.748564c19.99784-19.988417 19.99784-52.289963 0-72.272099-19.989988-19.986847-52.31038-19.986847-72.30665 0L15.209227 347.698258c-4.760344 4.700663-8.491975 10.379779-11.103804 16.665129a50.241963 50.241963 0 0 0-3.934233 19.474846c0 6.645006 1.327117 13.290012 3.934233 19.520393 2.611828 6.28692 6.34346 11.911067 11.103804 16.666699L475.36373 880.018061c19.99784 19.933448 52.318233 19.933448 72.308221-0.054969"  horiz-adv-x="1126" />

    
    <glyph glyph-name="jiahao1" unicode="&#58701;" d="M515.020-60.451c-60.72 0-119.631 11.895-175.096 35.354-53.566 22.657-101.671 55.089-142.977 96.396-41.307 41.307-73.739 89.411-96.395 142.977-23.46 55.464-35.355 114.376-35.355 175.096s11.895 119.631 35.354 175.096c22.656 53.566 55.089 101.671 96.395 142.977s89.411 73.739 142.977 96.395c55.465 23.459 114.375 35.354 175.096 35.354s119.631-11.895 175.096-35.354c53.566-22.656 101.671-55.089 142.977-96.395 41.306-41.307 73.738-89.411 96.395-142.977 23.459-55.465 35.354-114.375 35.354-175.096s-11.895-119.632-35.354-175.096c-22.657-53.567-55.089-101.671-96.395-142.977s-89.412-73.739-142.977-96.396c-55.464-23.459-114.375-35.354-175.095-35.354zM515.020 813.922c-57.318 0-112.917-11.224-165.25-33.358-50.553-21.382-95.957-51.996-134.952-90.989s-69.607-84.398-90.989-134.952c-22.134-52.333-33.358-107.93-33.358-165.25 0-57.318 11.224-112.918 33.358-165.25 21.383-50.553 51.996-95.956 90.989-134.951 38.994-38.994 84.398-69.607 134.952-90.989 52.333-22.135 107.93-33.359 165.25-33.359s112.917 11.223 165.25 33.359c50.553 21.382 95.957 51.996 134.952 90.989 38.994 38.994 69.606 84.397 90.988 134.951 22.135 52.333 33.359 107.931 33.359 165.25 0 57.319-11.223 112.918-33.359 165.25-21.382 50.553-51.995 95.957-90.988 134.952-38.994 38.994-84.398 69.607-134.952 90.989-52.333 22.134-107.931 33.358-165.25 33.358zM554.896 429.596c77.523 0 153.344 0 229.907 0 0-26.611 0-52.654 0-79.954-75.965 0-152.176 0-229.457 0 0-77.233 0-153.227 0-229.552-27.214 0-53.346 0-80.528 0 0 76.266 0 152.242 0 229.174-77.069 0-153.098 0-229.582 0 0 27.023 0 53.087 0 80.004 76.253 0 152.285 0 229.265 0 0 76.863 0 152.883 0 229.386 27.079 0 53.211 0 80.396 0-0.001-75.995-0.001-151.983-0.001-229.058z"  horiz-adv-x="1024" />

    
    <glyph glyph-name="liebiao" unicode="&#58883;" d="M153.6 742.4a51.2 51.2 0 1 0 0.0256-102.3744A51.2 51.2 0 0 0 153.6 742.4z m0-307.2a51.2 51.2 0 1 0 0.0256-102.3744A51.2 51.2 0 0 0 153.6 435.2z m0-307.2a51.2 51.2 0 1 0 0.0256-102.3744A51.2 51.2 0 0 0 153.6 128zM896 716.8H332.8a25.6 25.6 0 0 1 0-51.2h563.2a25.6 25.6 0 0 1 0 51.2z m0-307.2H332.8a25.6 25.6 0 0 1 0-51.2h563.2a25.6 25.6 0 0 1 0 51.2z m0-307.2H332.8a25.6 25.6 0 0 1 0-51.2h563.2a25.6 25.6 0 0 1 0 51.2z"  horiz-adv-x="1024" />

    
    <glyph glyph-name="jianhao1" unicode="&#58903;" d="M512-128c-281.6 0-512 230.4-512 512s230.4 512 512 512 512-230.4 512-512-230.4-512-512-512zM512 825.6C268.8 825.6 70.4 627.2 70.4 384c0-243.2 198.4-441.6 441.6-441.6 243.2 0 441.6 198.4 441.6 441.6 0 243.2-198.4 441.6-441.6 441.6zM256 428.8h512v-83.2H256z"  horiz-adv-x="1024" />

    
    <glyph glyph-name="suo" unicode="&#58933;" d="M903.284899 453.783607c-6.399753 32.89873-34.19868 55.397862-67.89738 55.797846-20.299217 0.199992-18.799274-2.699896-18.89927 19.199259-0.099996 40.098452 0.799969 35.598626-0.199993 75.697079-1.999923 80.796882-32.598742 150.094207-90.496507 205.792058-95.996295 92.49643-235.990892 112.495658-353.186369 48.498128-100.79611-54.997877-153.894061-142.294508-158.093899-257.790051-1.29995-37.498553 0-30.598819-0.199992-68.097372-0.099996-26.998958 3.399869-22.999112-23.399097-23.299101-41.798387-0.399985-70.897264-29.198873-70.99726-70.99726-0.099996-164.593648 0.499981-329.287292-0.499981-493.880939-0.299988-42.698352 36.198603-73.197175 73.197175-72.697194 106.195902 1.399946 212.391803 0.499981 318.587705 0.49998h320.687623c43.998302 0 72.497202 28.4989 72.497202 72.497203 0.099996 162.793717 0.099996 325.687431 0 488.481147 0.099996 6.799738 0.199992 13.699471-1.099957 20.299217zM273.709197 593.678208c0.799969 101.796071 61.597623 190.992629 154.494037 227.091235 146.39435 56.897804 310.088033-40.398441 328.587319-196.092432 5.999768-50.498051 1.699934-56.897804 2.499903-107.695843 0.099996-8.499672-5.999768-7.399714-11.299564-7.399715H289.108602c-15.599398 0-15.499402-0.099996-15.499402 14.899425 0 37.898537-0.199992 31.298792 0.099997 69.19733z m567.678091-635.07549c0-12.299525-9.999614-22.299139-22.29914-22.29914H204.911852c-12.299525 0-22.299139 9.999614-22.29914 22.29914V419.284938c0 12.299525 9.999614 22.299139 22.29914 22.29914h614.276292c12.299525 0 22.299139-9.999614 22.29914-22.29914v-460.68222zM517.399792 368.586895c-38.898499 3.599861-75.297094-18.099301-88.696577-52.897959-13.99946-36.198603-3.199877-77.896994 27.19895-99.396164 10.799583-7.599707 14.599437-16.799352 14.699433-28.798888 0.199992-19.999228 0-40.098452 0-63.397553 1.29995-20.499209-2.199915-44.398287 1.599938-68.097372 2.699896-16.499363 17.399328-27.998919 34.698661-28.398904 16.299371-0.299988 29.398865 10.09961 33.598703 26.798966 1.29995 5.099803 1.499942 10.199606 1.499942 15.399405 0 37.298561 0 74.597121 0.099996 111.895682 0 13.99946 3.899849 24.799043 16.799352 33.998688 28.598896 20.599205 38.998495 49.99807 32.698738 84.696731-6.599745 36.098607-38.298522 64.897495-74.197136 68.197368z"  horiz-adv-x="1024" />

    
    <glyph glyph-name="zan1" unicode="&#58884;" d="M130.409601 339.493689c8.433214-13.116055 8.433214-29.978091-1.872258-44.032472-0.938325-1.873722-18.737222-25.29525-14.05438-51.52736 2.810583-19.672619 16.864964-37.474444 42.160213-54.33648 16.8635-12.179194 21.547805-33.727 10.304008-50.591964-0.936861-1.873722-18.737222-31.853277-11.242333-61.832832 4.684305-18.737222 18.737222-36.537583 43.095611-50.5905 12.17773-7.494889 19.672619-20.610944 17.798897-34.66386 0-2.812047-0.936861-38.411305 28.105833-69.327722 30.916416-32.790138 88.064943-50.591963 165.824414-50.591963h1.873722c154.582081 0 237.025858 26.233575 303.542997 47.78138 43.094147 14.052916 81.506916 26.232111 128.349971 28.105833V429.430891c-13.116055 4.684305-25.29525 11.242333-37.474444 17.80036-35.600722 20.610944-69.327721 48.716777-101.180999 81.506916-59.022249 61.832833-100.244138 140.529165-118.045963 224.846664-2.810583 13.116055-5.621167 26.232111-7.494888 39.348166-9.367147 58.085388-16.8635 87.128082-47.779917 96.496694-13.116055 4.684305-57.148527 15.926639-91.812387-9.368611-31.854741-22.484666-48.716777-71.201444-48.716778-140.529165 0.936861-21.547805 8.43175-81.506916 26.232111-121.791943 9.367147-20.610944 6.556564-43.095611-5.621166-61.832833-12.179194-17.800361-32.790138-29.042694-55.276269-29.042694H210.042795c-18.737222 0-37.474444-4.684305-53.399619-14.052917-18.738686-11.242333-43.095611-35.600722-51.527361-68.39086-7.494889-31.853277 0.935397-67.451072 25.293786-104.926979z m935.924239 68.39086c0 5.621167-3.747444 9.368611-9.367147 9.368611l-110.551074-2.810583v-481.545142h119.918221c5.621167 0 0 19.672619 0 25.29525V407.884549z"  horiz-adv-x="1246" />

    
    <glyph glyph-name="ren1" unicode="&#58908;" d="M998.72 76.48h-128.64v128.64c0 13.92-11.36 25.28-25.28 25.28s-25.28-11.36-25.28-25.28v-128.64h-128.64c-13.92 0-25.28-11.36-25.28-25.28 0-13.92 11.36-25.28 25.28-25.28h128.64v-128.64c0-13.92 11.36-25.28 25.28-25.28s25.28 11.36 25.28 25.28v128.64h128.64c13.92 0 25.28 11.36 25.28 25.28 0 13.92-11.36 25.28-25.28 25.28zM160.16 51.52l23.52-10.24c33.6 76.8 93.44 139.52 168.16 176.96l-11.52 22.88c-80.16-40.16-144.16-107.36-180.16-189.6zM817.12 276.48c-50.24 40.64-108.8 71.36-172.8 89.28C733.12 413.12 793.6 506.72 793.6 614.4 793.6 769.92 667.52 896 512 896S230.4 769.92 230.4 614.4c0-107.68 60.48-201.28 149.28-248.64C175.36 308.16 25.6 120.32 25.6-102.4c0-14.08 11.52-25.6 25.6-25.6s25.6 11.52 25.6 25.6c0 240.32 194.88 435.2 435.2 435.2 100 0 192.16-33.76 265.76-90.56 8.64 15.52 22.56 27.68 39.36 34.24zM512 384c-127.2 0-230.4 103.2-230.4 230.4S384.8 844.8 512 844.8s230.4-103.2 230.4-230.4-103.2-230.4-230.4-230.4z"  horiz-adv-x="1024" />

    
    <glyph glyph-name="chuizi" unicode="&#58915;" d="M970.24 63.488l-224.256 224.256c-10.24 10.24-26.112 10.24-36.352 0l-25.088-25.088-99.84 99.84L683.008 460.8c22.016-15.36 52.224-12.8 71.68 6.656l32.768 32.768c22.016 22.016 22.016 57.856 0 79.872L548.352 819.2c-22.016 22.016-57.856 22.016-79.872 0l-32.768-32.768c-20.992-20.992-22.016-53.76-3.584-75.776L167.936 445.44c-22.016 18.432-55.296 17.408-75.776-3.584L59.392 409.6c-22.016-22.016-22.016-57.856 0-79.872l239.104-239.104c22.016-22.016 57.856-22.016 79.872 0l32.768 32.768c19.456 19.456 21.504 49.664 6.656 71.68l131.072 131.072 99.84-99.84-17.92-17.92c-10.24-10.24-10.24-26.112 0-36.352l224.256-224.256c10.24-10.24 26.112-10.24 36.352 0l79.872 79.872c9.216 9.728 9.216 25.6-1.024 35.84z m-619.52 137.728l24.064-35.328c1.536-2.048 1.024-4.608-0.512-6.656l-32.768-32.768c-2.048-2.048-5.12-2.048-7.168 0l-239.104 239.104c-2.048 2.048-2.048 5.12 0 7.168l32.768 32.768c2.048 2.048 5.12 2.048 6.656 0.512l35.84-30.208L501.76 707.072l-30.208 35.84c-1.536 2.048-1.536 5.12 0.512 6.656l32.768 32.768c2.048 2.048 5.12 2.048 7.168 0l239.104-239.104c2.048-2.048 2.048-5.12 0-7.168l-32.768-32.768c-1.536-1.536-4.608-2.048-6.656-0.512l-35.328 24.064L547.84 398.336l-36.352-36.352-160.768-160.768z m521.728-199.168l-188.416 188.416 43.52 43.52 188.416-188.416-43.52-43.52z"  horiz-adv-x="1024" />

    
    <glyph glyph-name="xinxi" unicode="&#58919;" d="M867.749195-127.759059H149.804725A123.482353 123.482353 0 0 0 30.147313-0.512V762.518588A129.776941 129.776941 0 0 0 150.617901 895.759059h722.612706a124.928 124.928 0 0 0 120.470588-127.939765v-767.638588a129.505882 129.505882 0 0 0-125.921882-127.939765z m6.445177 963.312941H151.581666a72.282353 72.282353 0 0 1-61.620706-73.035294v-763.090823a66.078118 66.078118 0 0 1 60.837647-67.373177h715.023059a72.734118 72.734118 0 0 1 67.553882 68.126118V765.921882s1.415529 69.632-59.151059 69.632zM524.076725 201.968941H271.088489c-16.624941 0-22.347294 12.047059-22.347294 29.635765A25.690353 25.690353 0 0 0 271.088489 263.529412h252.988236a36.141176 36.141176 0 0 0 34.966588-32.918588 32.707765 32.707765 0 0 0-34.966588-28.702118zM752.970842 384H271.088489a23.311059 23.311059 0 0 0-22.829176 28.912941A24.485647 24.485647 0 0 0 271.088489 443.241412h481.882353a23.190588 23.190588 0 0 0 23.311059-28.431059 25.208471 25.208471 0 0 0-23.491765-30.810353z m0 210.492235H271.088489a24.606118 24.606118 0 0 0-24.274823 29.394824A26.051765 26.051765 0 0 0 271.088489 655.058824h481.882353a25.419294 25.419294 0 0 0 23.311059-31.051295 24.094118 24.094118 0 0 0-23.311059-29.394823z"  horiz-adv-x="1024" />

    
    <glyph glyph-name="xinxi1" unicode="&#58983;" d="M949.991883 254.773498c41.394866 0 75.093563 33.698696 75.093563 75.093563V726.371187c0 41.394866-33.698696 75.093563-75.093563 75.093562H328.576912c-41.394866 0-75.093563-33.696976-75.093563-75.093562v-396.504126c0-41.393146 33.698696-75.093563 75.093563-75.093563h95.816799l1.99715-200.485741 205.553448 200.485741h318.047574zM1119.641339 639.56479h-68.3177v-340.66475c0-41.393146-33.698696-75.093563-75.093562-75.093562H658.208305l-64.034404-62.460422h232.502083l185.671389-194.810805V161.346056h107.295686c41.393146 0 75.093563 33.698696 75.093562 75.093562V564.49703c-0.00172 41.369063-33.700417 75.06776-75.095282 75.06776z"  horiz-adv-x="1448" />

    
    <glyph glyph-name="ren2" unicode="&#58887;" d="M586.5554498016844 382.3432175658804c54.67401253899985 28.165397486556145 92.78010463023092 84.49619245966848 92.78015268355283 150.76768203745564 0 92.78010463023092-76.21223223578413 168.99238491933696-168.99238491933696 168.99238491933696s-168.99238491933696-76.21223223578413-168.99238491933696-168.99238491933696c0-66.27153763110915 38.10614014455301-122.60228455089951 92.78015268355283-150.76768203745564-96.09371755177787-31.478962354781114-164.02198956367747-122.60228455089951-164.0220376169996-228.63674476067413 0-11.597525092109354 9.94074265799687-19.881437262671785 19.88148531599374-19.881437262671785 11.597525092109354 0 19.881437262671785 9.94074265799687 19.881437262671785 19.881437262671785 0 111.00480751211214 89.46653976200588 200.47134727411807 200.47134727411807 200.47134727411807s200.47134727411807-89.46653976200588 200.47134727411807-200.47134727411807c0-11.597525092109354 9.94074265799687-19.881437262671785 19.881437262671785-19.881437262671785 11.597525092109354 0 19.881437262671785 9.94074265799687 19.881437262671785 19.881437262671785 0 106.03441215645267-69.5851024993342 197.15778240589313-164.02198956367747 228.63674476067413z m-203.78491214234293 150.76768203745564c0 71.24188493344658 57.98757740722482 127.57267990655895 127.57267990655895 127.57267990655895 71.24188493344658 0 127.57267990655895-57.98757740722482 127.57267990655895-127.57267990655895 0-71.24188493344658-57.98757740722482-127.57267990655895-127.57267990655895-127.57267990655895-71.24188493344658 0-127.57267990655895 57.98757740722482-127.57267990655895 127.57267990655895zM828.4465020885739 700.4465020885631c-84.49619245966848 84.49619245966848-197.15778240589313 130.88624477478388-316.4465020885679 130.88624477478388s-231.95030962889928-46.39005231511546-316.4465020885679-130.88624477478388-130.88624477478388-197.15778240589313-130.88624477478388-316.4465020885679 46.39005231511546-231.95030962889928 130.88624477478388-316.4465020885679 197.15778240589313-130.88624477478388 316.4465020885679-130.88624477478388 231.95030962889928 46.39005231511546 316.4465020885679 130.88624477478388 130.88624477478388 197.15778240589313 130.88624477478388 316.4465020885679-46.39005231511546 231.95030962889928-130.88624477478388 316.4465020885679z m-316.4465020885679-720.7027615050284c-223.6663494050148 0-405.9130418505738 182.24669244555875-405.9130418505738 405.9130418505738s182.24669244555875 405.9130418505738 405.9130418505738 405.9130418505738 405.9130418505738-182.24669244555875 405.9130418505738-405.9130418505738-182.24669244555875-405.9130418505738-405.9130418505738-405.9130418505738z"  horiz-adv-x="1024" />

    
    <glyph glyph-name="xiugai2" unicode="&#58924;" d="M868.608 338.304c-15.104 0-27.392-12.288-27.392-27.392v-237.568c0-10.24-8.32-18.432-18.304-18.432H201.088c-10.112 0-18.304 8.32-18.304 18.304V694.784c0 10.112 8.192 18.304 18.432 18.304h237.568c15.104-0.128 27.52 12.16 27.648 27.264 0.128 15.104-12.16 27.52-27.264 27.648H146.304c-4.864 0-9.472-1.92-12.928-5.376-3.456-3.456-5.376-8.064-5.376-12.928v-731.392c0-4.864 1.92-9.472 5.376-12.928 3.456-3.456 8.064-5.376 12.928-5.376h731.52c10.112 0 18.176 8.32 18.176 18.304V310.912c0 15.104-12.288 27.392-27.392 27.392zM446.464 311.552c5.12-5.12 12.16-8.064 19.456-8.064 7.296 0 14.336 2.944 19.456 8.064l400.64 400.64c10.624 10.624 10.752 28.16 0.128 38.912-5.12 5.12-12.16 8.064-19.456 8.064-7.296 0-14.336-2.944-19.456-8.064l-400.64-400.64c-10.752-10.624-10.88-28.16-0.128-38.912z"  horiz-adv-x="1024" />

    
    <glyph glyph-name="ren3" unicode="&#58627;" d="M667.65809891 359.40771498000004c80.05227065 50.19159552 133.70065806 138.57323235 133.70065807 240.02990422 0 156.77465714-127.09444835 283.86910549-283.86910549 283.86910549-156.78397213 0-283.86910549-127.09444835-283.8691055-283.86910549 0-101.45783467 53.64838741-189.83830869 133.70065806-240.02990422C186.71226197 296.87109859 56.19828053 127.12852366000004 56.19828053-74.75674568c0-19.59974343 15.88214898-35.48305635 35.48305636-35.48305635 6.92988359 0 28.55200768 0 35.48305636 0l780.6516827 0c6.93104867 0 28.55200768 0 35.48305635 0 19.59974343 0 35.48305635 15.88214898 35.48305636 35.48305635C978.77985849 127.12852366000004 848.26471083 296.87109859 667.65809891 359.40771498000004zM304.58432967 599.4376192c0 117.58332131 95.32083541 212.90415787 212.90415787 212.90415786s212.90415787-95.32083541 212.90415787-212.90415786-95.32083541-212.90415787-212.90415787-212.90415787S304.58432967 481.85429674 304.58432967 599.4376192zM517.4884864 315.56851370000004c203.41049571 0 368.55992775-156.17853781 386.75203755-354.84336696L130.73644885-39.27485439999998C148.92855979 159.38997474999996 314.07799069 315.56851370000004 517.4884864 315.56851370000004z"  horiz-adv-x="1024" />

    
    <glyph glyph-name="ren4" unicode="&#58628;" d="M65.31819232 172.87350772000002c9.80016606 97.18977999 71.7985073 179.02758934 158.12381537 215.99040914-49.00673582 33.18387325-81.12778141 89.1595192-81.1277802 152.69305702 0 101.79537093 82.54636274 184.34173369 184.34025668 184.34173367 15.23387839 0 29.87729564-2.12565774 44.04834517-5.55032758-13.46102036-14.64341724-25.50641217-30.70394004-35.42762322-48.06347617-2.83420991 0.11809223-5.66841981 0.82664441-8.62072195 0.82664441-72.74324393 0-131.67119079-58.92794687-131.67119078-131.67266657s58.92794687-131.67266657 131.67119078-131.67266657c2.95230213 0 5.66841981 0.59045994 8.62072195 0.82664441 11.10065516-19.24900818 24.44653605-36.96281979 39.79850547-52.78715814-13.93634084 2.95230213-28.46166706 4.60411517-43.22317653 4.60411397-109.23517179 0-198.98367515-83.13534691-209.61343715-189.53630759H65.31819232z m417.33592647 141.94667734c-77.4669271 45.8197262-129.78319329 130.01937776-129.66510105 226.61869658 0 145.4894394 117.85589373 263.34533313 263.34533313 263.34533313s263.34385735-117.97398596 263.34385735-263.34533313c0-105.10194855-61.76215677-195.67857209-150.92020019-237.83744398 134.74158395-54.79472364 229.92527542-186.93975913 229.92527543-341.40272019h-47.70919948c0 1.76990527 0.23618446 3.5412863 0.23618447 5.31414313 0 174.54009063-141.47430961 316.01440025-315.77821579 316.01440024-174.54009063 0-315.89630802-141.47430961-315.89630801-316.01440024 0-1.77138105 0.23618446-3.54276208 0.23618446-5.31414313h-58.45557794c0.00147578 166.27216961 110.17843265 306.68364914 261.33776762 352.62146759z m133.56213984 437.29496381c-116.32217293 0-210.67774301-94.35557008-210.677743-210.67626723s94.35557008-210.67626602 210.677743-210.67626602c116.32069595 0 210.67626602 94.35557008 210.67626603 210.67626602s-94.35557008 210.67626602-210.67626603 210.67626723z"  horiz-adv-x="1024" />

    
    <glyph glyph-name="shibai" unicode="&#58957;" d="M817.403509 860.070175H251.508772c-79.045614 0-143.719298-64.673684-143.719298-143.719298v-664.701754c0-79.045614 64.673684-143.719298 143.719298-143.719298h341.333333c19.761404 0 35.929825 16.168421 35.929825 35.929824s-16.168421 35.929825-35.929825 35.929825H251.508772c-39.522807 0-71.859649 32.336842-71.859649 71.859649V716.350877c0 39.522807 32.336842 71.859649 71.859649 71.859649h565.894737c39.522807 0 71.859649-32.336842 71.859649-71.859649v-350.315789c0-19.761404 16.168421-35.929825 35.929824-35.929825s35.929825 16.168421 35.929825 35.929825V716.350877c0 79.045614-64.673684 143.719298-143.719298 143.719298zM772.491228 617.54386H341.333333c-19.761404 0-35.929825-16.168421-35.929824-35.929825s16.168421-35.929825 35.929824-35.929824h431.157895c19.761404 0 35.929825 16.168421 35.929825 35.929824s-16.168421 35.929825-35.929825 35.929825zM682.666667 437.894737H341.333333c-19.761404 0-35.929825-16.168421-35.929824-35.929825s16.168421-35.929825 35.929824-35.929824h341.333334c19.761404 0 35.929825 16.168421 35.929824 35.929824s-16.168421 35.929825-35.929824 35.929825zM520.982456 258.245614H341.333333c-19.761404 0-35.929825-16.168421-35.929824-35.929825s16.168421-35.929825 35.929824-35.929824h179.649123c19.761404 0 35.929825 16.168421 35.929825 35.929824s-16.168421 35.929825-35.929825 35.929825zM948.547368 205.249123c-10.778947 11.677193-28.74386 11.677193-40.421052 0l-184.140351-188.631579c-10.778947-11.677193-10.778947-29.642105 0-41.319298 10.778947-11.677193 28.74386-11.677193 40.421053 0l184.14035 187.733333c10.778947 12.575439 10.778947 30.540351 0 42.217544zM953.038596 18.414035L770.694737 203.452632c-10.778947 10.778947-28.74386 10.778947-39.522807 0-10.778947-10.778947-10.778947-29.642105 0-40.421053l182.343859-185.936842c10.778947-10.778947 28.74386-10.778947 39.522807 0 10.778947 11.677193 10.778947 29.642105 0 41.319298z"  horiz-adv-x="1077" />

    


  </font>
</defs>
</svg>
